<svg width="138" height="51" viewBox="0 0 138 51" fill="none" xmlns="http://www.w3.org/2000/svg">
<path d="M95.5123 2.90479C95.2869 2.88819 95.1809 2.87325 95.3251 2.86661C95.4063 2.88321 95.4593 2.89483 95.5123 2.90479ZM102.46 4.09326C102.309 4.06671 102.336 4.07168 102.321 4.06173C102.47 4.08828 102.444 4.0833 102.46 4.09326ZM70.4706 2.41512C70.6794 2.41512 70.5999 2.40517 70.9264 2.4367C70.4756 2.4367 70.5734 2.44832 70.4706 2.41512ZM73.4108 2.4699C73.3893 2.46326 73.3727 2.46326 73.4688 2.46326C73.4854 2.4699 73.502 2.4699 73.4108 2.4699ZM82.815 49.7947C82.6708 49.7947 82.7023 49.7947 82.7238 49.7881H82.8415L82.815 49.7947ZM45.825 4.37378C45.767 4.38872 45.7935 4.38374 45.7189 4.38872L45.762 4.37876L45.825 4.37378ZM32.2906 6.98145C32.3934 6.95988 32.3818 6.95988 32.4779 6.94992C32.2956 6.99307 32.3436 6.98145 32.2906 6.98145ZM70.0314 49.896C70.154 49.896 70.2353 49.896 70.0844 49.9076C70.0679 49.901 70.0463 49.901 70.0314 49.896ZM19.464 42.1842C19.6148 42.2323 19.6728 42.2539 19.5501 42.2273C19.5236 42.2107 19.4954 42.1991 19.464 42.1842ZM48.6045 48.5681C48.6045 48.5731 48.6359 48.578 48.4603 48.5565C48.4652 48.5515 48.4321 48.5465 48.6045 48.5681ZM25.9013 44.0067C25.772 43.942 25.8748 43.9686 26.1383 44.0598C26.0306 44.0383 25.966 44.0233 25.9013 44.0067ZM19.1308 7.34165C19.2004 7.31509 19.1789 7.32007 19.217 7.31509L19.1573 7.33667L19.1308 7.34165ZM26.7549 44.0764C26.5825 44.0283 26.6206 44.0383 26.6041 44.0283C26.7764 44.0764 26.7383 44.0665 26.7549 44.0764ZM41.5555 2.06655L41.4859 2.07153C41.5771 2.05493 41.5439 2.05991 41.6036 2.05493L41.5555 2.06655ZM45.1919 1.54369C45.3427 1.52211 45.2946 1.52875 45.3808 1.52875L45.2631 1.54369C45.2349 1.54369 45.2134 1.54369 45.1919 1.54369ZM44.5869 1.77607L44.63 1.76943L44.5803 1.77607H44.5869ZM49.0602 1.23163C49.216 1.20009 49.163 1.21005 49.3072 1.20009C49.1779 1.22167 49.2426 1.21669 49.0602 1.23163ZM119.82 41.9584C119.772 41.9584 119.831 41.9369 119.949 41.9086C119.906 41.9252 119.863 41.9418 119.82 41.9584ZM73.2285 0.441528C73.3992 0.436548 73.3197 0.424929 73.6578 0.453147C73.3561 0.458126 73.4688 0.463106 73.2285 0.441528ZM92.2837 2.44832L92.2572 2.43172C92.4113 2.44168 92.5738 2.45828 92.7279 2.47488L92.761 2.49646C92.6003 2.47488 92.4445 2.46326 92.2837 2.44832ZM86.7795 1.95866C86.9618 1.96862 86.9021 1.96364 86.9933 1.98024C86.8226 1.97526 86.8756 1.98024 86.7795 1.95866ZM88.4203 2.10971C88.6573 2.11469 88.6142 2.11469 88.7369 2.13129L88.7485 2.14124L88.4203 2.10971ZM91.7086 2.4367L91.7683 2.42674L92.2671 2.49148L92.1544 2.49646L91.7086 2.4367ZM96.6825 3.17867L96.6709 3.16871L96.9941 3.21187L96.999 3.22183L96.6825 3.17867ZM93.6991 3.30316C93.7422 3.29154 93.7804 3.29818 93.8384 3.31976C93.7969 3.31312 93.7472 3.30814 93.6991 3.30316ZM55.9169 3.2766L55.9965 3.26498L56.0247 3.26996C55.96 3.2766 55.9865 3.2766 55.9169 3.2766ZM46.1415 4.40034C45.9708 4.43188 46.067 4.42192 45.7504 4.45346C45.7985 4.4435 45.8416 4.43188 45.9161 4.4103C46.0023 4.40532 46.0719 4.40532 46.1415 4.40034ZM38.67 2.48484L38.7495 2.45828L38.8738 2.44168C38.8042 2.4699 38.8622 2.45828 38.67 2.48484ZM57.6655 0.5544C57.5909 0.575978 57.7036 0.570999 57.1832 0.592577L57.2743 0.575978L57.6655 0.5544ZM79.9493 49.9391C79.7355 49.9508 79.7885 49.9508 79.7885 49.9342C79.8532 49.9391 79.9012 49.9391 79.9493 49.9391ZM83.9138 49.7234H83.7746C83.9204 49.7084 83.9635 49.7084 83.9138 49.7234ZM45.0742 48.0087C44.9399 47.9821 44.935 47.9871 45.0477 47.9871C45.1869 48.0137 45.1819 48.0137 45.0742 48.0087ZM100.915 4.74394C101.028 4.75058 100.959 4.73398 101.328 4.80867H101.225L100.915 4.74394ZM95.582 3.80776L95.6101 3.81938C95.3367 3.7978 95.4693 3.8144 95.1113 3.75963L95.1262 3.74967L95.582 3.80776ZM99.4719 3.72311L99.4072 3.72809L99.1669 3.68493L98.9249 3.64676L98.9946 3.6368C99.1553 3.66335 99.3111 3.69489 99.4719 3.72311ZM92.4544 2.55455C92.7445 2.57613 92.6318 2.56617 92.8622 2.60933C92.5837 2.58775 92.6914 2.59771 92.4544 2.55455ZM94.3223 2.7388V2.74876L93.8931 2.70062V2.68901L94.3223 2.7388ZM62.8963 0.297118L63.2393 0.28052L63.2079 0.297118C62.8316 0.307078 62.9178 0.302098 62.8963 0.297118ZM28.6045 4.83523L28.6161 4.83025L28.8846 4.76053L28.873 4.77049L28.6045 4.83523ZM13.847 10.0373L13.842 10.0423L13.605 10.1551L13.6117 10.1502L13.847 10.0373ZM7.90852 13.5064L7.78587 13.5811C7.91349 13.4782 7.86543 13.5164 7.97813 13.4417L7.90852 13.5064ZM0.955703 26.651L0.917583 26.5597L0.891064 26.4087C0.907638 26.4518 0.912611 26.4568 0.917583 26.4834C0.924212 26.505 0.929184 26.5431 0.955703 26.651ZM28.0642 4.83523L27.9664 4.84685C28.1653 4.78709 28.1057 4.80369 28.1918 4.79207C28.1488 4.80867 28.1057 4.82029 28.0642 4.83523ZM43.014 1.62004C43.0356 1.60842 43.0041 1.6134 43.1748 1.59182C43.1549 1.59846 43.1814 1.59846 43.014 1.62004ZM29.6885 4.09326L29.5758 4.11982L29.5973 4.10986C29.6885 4.08828 29.662 4.09326 29.6885 4.09326ZM11.7819 38.4179L11.6857 38.3598C11.8134 38.4179 11.8465 38.4395 11.7819 38.4179ZM49.4249 48.6976C49.5757 48.7191 49.5641 48.7125 49.4845 48.7191L49.3669 48.6976C49.3884 48.6976 49.4033 48.6976 49.4249 48.6976ZM82.8465 49.6271C82.8249 49.6321 82.8581 49.6321 82.6907 49.6437L82.7188 49.6321L82.8465 49.6271ZM1.2673 20.4016C1.30542 20.2987 1.2673 20.3734 1.41149 20.0829C1.35845 20.224 1.38994 20.1543 1.2673 20.4016ZM35.4181 46.0882C35.5093 46.1148 35.5259 46.1148 35.3866 46.0998L35.3104 46.0716L35.4181 46.0882ZM25.966 43.7594C26.1317 43.7976 26.0836 43.786 26.1582 43.8192L26.0256 43.786C26.0041 43.776 25.9825 43.7644 25.966 43.7594ZM56.9362 0.371813L56.6362 0.388412L56.6677 0.376793C57.0108 0.355214 56.9313 0.360194 56.9362 0.371813ZM55.8573 0.511243C55.9318 0.494644 55.8788 0.501284 56.0445 0.489664L55.9865 0.506263C55.9434 0.506263 55.9004 0.506264 55.8573 0.511243ZM27.5322 4.91656L27.5057 4.91158L27.8803 4.80369L27.9018 4.80867L27.5322 4.91656ZM0.446879 26.2527C0.489972 26.4469 0.47837 26.3871 0.483342 26.4784L0.451852 26.3274C0.446879 26.3008 0.446879 26.2742 0.446879 26.2527ZM62.2731 49.901C62.3758 49.896 62.3112 49.891 62.5631 49.9126C62.4239 49.9176 62.4885 49.9225 62.2731 49.901ZM93.6461 48.8801L93.6511 48.8735L94.3372 48.7938L94.3273 48.8038L93.6461 48.8801ZM79.4836 50.0205L79.3444 50.0354L79.1339 50.0255L79.2317 50.0138L79.4836 50.0205ZM28.5349 4.39536C28.7338 4.33063 28.6692 4.34556 28.8581 4.30407C28.825 4.31901 28.7985 4.33063 28.7504 4.34556C28.6592 4.36714 28.5996 4.37876 28.5349 4.39536ZM18.2789 41.7593C18.5574 41.8605 18.7082 41.9203 18.4828 41.8605C18.3966 41.8173 18.3369 41.7908 18.2789 41.7593ZM94.3754 2.60933V2.60435L95.4378 2.73216L95.4112 2.7388L94.3754 2.60933ZM11.4056 11.3054H11.3841C11.5183 11.2307 11.6476 11.1561 11.7819 11.0797L11.82 11.0747C11.6791 11.1494 11.5465 11.2307 11.4056 11.3054ZM50.5519 48.8254C50.2569 48.7988 50.3315 48.8104 50.2469 48.7888C50.5304 48.8104 50.4442 48.7988 50.5519 48.8254ZM21.2937 42.883L21.2772 42.8664L21.6633 42.9909L21.6799 43.0125L21.2937 42.883ZM56.27 0.340275L56.265 0.350235L55.665 0.393391L55.67 0.381772L56.27 0.340275ZM32.1133 45.3562L32.0768 45.3629L31.5829 45.2433L31.626 45.2384L32.1133 45.3562ZM95.9101 3.57206C95.6201 3.53886 95.6897 3.55048 95.5936 3.5289C95.6516 3.53388 95.7063 3.53388 95.7858 3.53886C95.8405 3.55048 95.872 3.56044 95.9101 3.57206ZM56.9462 49.6536C56.9147 49.6437 57.2843 49.6536 57.1351 49.6819C57.0423 49.6702 56.9578 49.6603 56.9462 49.6536ZM87.5999 2.58277H87.5087L87.0264 2.52302L87.1226 2.51804L87.5999 2.58277ZM44.4261 48.0519L44.635 48.095C44.5869 48.0884 44.5388 48.0884 44.393 48.0784C44.2803 48.0402 44.2753 48.0452 44.4261 48.0519ZM39.2003 2.58277L39.1904 2.59273L38.7445 2.66909L38.7495 2.65747L39.2003 2.58277ZM67.89 2.57613C67.4177 2.60933 67.4177 2.60933 67.0961 2.57613C67.3265 2.57613 67.5585 2.57613 67.89 2.57613ZM39.013 46.9646L39.0926 46.9912L38.7495 46.9431L38.6633 46.9215L39.013 46.9646ZM89.4297 2.50144L89.4661 2.52302C89.3269 2.50642 89.1827 2.49646 89.0435 2.48484L88.6192 2.45828L88.5546 2.43172C88.7916 2.42674 89.123 2.4699 89.4297 2.50144ZM13.1277 39.1117C13.0747 39.0902 13.0216 39.0702 12.9354 39.0371C12.72 38.8976 12.8758 38.9723 13.1277 39.1117ZM70.749 0.506263C70.996 0.468086 70.996 0.468086 71.6407 0.484685C71.286 0.494644 71.0772 0.494644 70.749 0.506263ZM35.8043 3.01268L35.9336 2.98612L36.159 2.9911L35.9551 3.03426L35.8043 3.01268ZM74.5379 50.0686L74.5793 50.0786L73.8931 50.1051L73.8351 50.0852L74.5379 50.0686ZM96.5267 3.0824C96.0328 3.03924 96.0394 3.03426 95.4328 2.93135C95.6035 2.95293 95.7759 2.97948 95.9532 3.00106C96.1306 3.02928 96.3228 3.05584 96.5267 3.0824ZM91.871 3.29818L91.8975 3.31312L91.3125 3.26L91.281 3.2434L91.871 3.29818ZM99.3592 3.86254L99.3758 3.85092L99.9442 3.94221L99.9177 3.95881L99.3592 3.86254ZM28.2681 44.4748L28.1338 44.4267L28.4985 44.4964L28.6692 44.5562L28.2681 44.4748ZM0.547981 24.8335L0.564555 24.7903C0.574499 25.016 0.591074 25.2418 0.617592 25.4675L0.602675 25.5157C0.591074 25.3978 0.581129 25.2899 0.569527 25.1721C0.564555 25.0592 0.552953 24.9463 0.547981 24.8335ZM78.282 0.640714C78.7974 0.624115 78.9151 0.635734 79.1239 0.68387C78.8339 0.667272 78.5869 0.650673 78.282 0.640714ZM92.1379 2.9745C91.8213 2.96455 91.8213 2.96455 91.2429 2.89483C91.6125 2.92637 91.8329 2.94795 92.1379 2.9745ZM0.17838 22.6175C0.231417 22.4117 0.252963 22.3104 0.264565 22.2938C0.274509 22.2839 0.264565 22.3586 0.247991 22.5096C0.221472 22.5528 0.204898 22.5793 0.17838 22.6175ZM57.0755 0.388412C57.4666 0.371813 57.7136 0.360194 57.9605 0.350235L57.9008 0.371813C57.6008 0.388412 57.2677 0.419949 57.0755 0.388412ZM55.0899 0.587597L54.881 0.597557L55.0849 0.527842L55.3484 0.511243L55.0899 0.587597ZM43.9488 1.47397C44.1411 1.47895 44.1576 1.49057 43.6952 1.57191C43.793 1.53373 43.846 1.51215 43.9488 1.47397ZM97.5725 4.21775V4.22771L96.7355 4.10986L96.7471 4.09326L97.5725 4.21775ZM1.55071 29.2969L1.58386 29.3284C1.64187 29.4479 1.70651 29.5708 1.77115 29.6903C1.83579 29.8031 1.90042 29.921 1.97004 30.0388C1.94352 30.0123 1.92197 29.9857 1.90042 29.9592C1.84076 29.8513 1.78275 29.7434 1.72308 29.6305C1.66342 29.5226 1.61038 29.4097 1.55071 29.2969ZM22.3346 43.1901C22.7572 43.3079 22.8219 43.3395 22.5053 43.2648C22.4257 43.2266 22.3777 43.205 22.3346 43.1901ZM65.6956 49.891L65.7022 49.8794L66.5326 49.901L66.5392 49.9176L65.6956 49.891ZM84.1028 1.22167L83.7862 1.23163L83.5707 1.20507C83.9519 1.19511 83.8774 1.19511 84.1028 1.22167ZM58.3848 49.5092L58.3517 49.5258L57.6821 49.476L57.7252 49.4611L58.3848 49.5092ZM60.6157 49.5623C61.2057 49.574 61.2919 49.5955 61.34 49.6271C61.1477 49.6105 60.9488 49.5889 60.6157 49.5623ZM64.6133 0.247322L64.5918 0.258941L63.8029 0.285499L63.8344 0.263921L64.6133 0.247322ZM99.2415 3.43761C99.51 3.45919 99.3857 3.44259 99.757 3.51729C99.4288 3.48077 99.5365 3.50235 99.2415 3.43761ZM46.4913 1.20507C46.9089 1.13536 46.9089 1.13536 47.4028 1.10382C47.1178 1.13536 46.8294 1.16856 46.4913 1.20507ZM32.1083 45.4475C32.6072 45.5405 32.6072 45.5405 33.2718 45.7064C32.9237 45.6318 32.5807 45.5554 32.1083 45.4475ZM11.1057 11.005C10.7841 11.2208 10.9283 11.1278 10.5272 11.3386C10.9548 11.0648 10.8057 11.1561 11.1057 11.005ZM50.9431 49.0577C50.9116 49.0577 50.7723 49.0295 50.7939 49.0295C50.9116 49.0146 51.1154 49.0511 51.3458 49.0843C51.1535 49.0727 51.0558 49.0677 50.9431 49.0577ZM33.4873 3.55048L33.4757 3.56044L32.7298 3.72809L32.758 3.70651L33.4873 3.55048ZM1.00377 28.9583C1.04189 29.0114 1.07338 29.0711 1.1115 29.1359C1.14962 29.194 1.18608 29.2587 1.2242 29.3284C1.29879 29.4745 1.38 29.6255 1.46618 29.7865L1.47613 29.8397C1.33691 29.5973 1.19768 29.3566 1.00377 28.9583ZM83.2111 49.8362L83.2492 49.8163C83.5658 49.7997 83.8873 49.7881 84.2039 49.7665L84.1724 49.7881C83.8508 49.8047 83.5343 49.8213 83.2111 49.8362ZM64.7741 50.0902C64.9398 50.057 65.1868 50.0686 65.4387 50.0852L65.4702 50.1001L64.7741 50.0902ZM74.3871 49.9391C74.6556 49.896 74.9671 49.896 75.1113 49.9225L75.0036 49.9391C74.8113 49.9391 74.6174 49.9391 74.3871 49.9391ZM47.489 48.2726C47.1559 48.2178 46.957 48.1863 46.7598 48.1481C47.1609 48.1913 47.4244 48.2228 47.489 48.2726ZM0.360694 24.3372L0.349092 24.3172C0.360694 23.8757 0.398815 23.4392 0.468426 23.0093L0.483342 23.0474C0.413731 23.4724 0.370639 23.9023 0.360694 24.3372ZM33.4011 45.6583L33.4491 45.6467L34.1038 45.7977L34.0557 45.8094L33.4011 45.6583ZM78.2074 0.506263C78.2869 0.506263 78.3615 0.506263 78.4311 0.506263C78.4958 0.506263 78.5604 0.506264 78.6151 0.511243C78.7261 0.511243 78.8123 0.516223 78.877 0.522862C79.0112 0.527842 79.0493 0.532822 79.0112 0.537801C78.9731 0.537801 78.8604 0.544441 78.6847 0.537801C78.5074 0.532822 78.2704 0.527842 77.982 0.522862C78.0731 0.511243 78.1212 0.506263 78.2074 0.506263ZM43.6952 1.75449L43.6322 1.78105C43.256 1.82919 42.8798 1.87732 42.5052 1.9321L42.5964 1.89392L43.6952 1.75449ZM17.7104 7.96576C18.1496 7.7616 17.9723 7.83629 18.4181 7.68026C17.9507 7.89605 18.1447 7.82135 17.7104 7.96576ZM92.7279 1.89392C93.0826 1.8989 93.0826 1.8989 93.6411 1.9902L93.6196 2.00181C93.3461 1.96862 93.0726 1.93708 92.7279 1.89392ZM53.996 0.640714C53.7325 0.700469 53.3463 0.732007 52.7944 0.743626C53.2071 0.705449 53.5932 0.672251 53.996 0.640714ZM92.4064 1.85575L91.1401 1.72627L91.097 1.71134C91.5213 1.73789 91.9506 1.76943 92.4064 1.85575ZM0.77836 21.7461C0.741898 21.8158 0.70875 21.8805 0.665657 21.9668C0.751842 21.6482 0.833055 21.429 0.864546 21.3643C0.891064 21.3046 0.869518 21.4075 0.77836 21.7461ZM48.5564 0.952771C48.868 0.883056 48.868 0.883056 49.3337 0.861478C49.0868 0.893015 48.8464 0.919573 48.5564 0.952771ZM54.3987 49.1972L54.5164 49.1922C54.7518 49.2188 54.9888 49.2453 55.37 49.2934C54.7037 49.2619 54.5761 49.2287 54.3987 49.1972ZM98.5388 3.94885C98.0067 3.89408 97.8095 3.86752 97.1979 3.73805C97.7333 3.82436 98.1145 3.87914 98.5388 3.94885ZM17.5646 8.23964C17.195 8.39069 16.8303 8.54174 16.3464 8.75089C16.8088 8.52016 17.19 8.37409 17.5646 8.23964ZM0.61262 26.7423L0.655712 26.8818C0.677259 26.9896 0.703777 27.0809 0.720351 27.1556C0.741898 27.232 0.751842 27.2901 0.768416 27.3399C0.794935 27.4362 0.806537 27.4893 0.811509 27.5108C0.816481 27.549 0.789963 27.4793 0.74687 27.4312C0.725324 27.3548 0.703777 27.2801 0.682231 27.2054L0.644111 26.973L0.61262 26.7423ZM83.3619 49.3964C83.7746 49.4113 83.7315 49.4013 83.2923 49.4545C82.9376 49.4445 82.863 49.4611 83.3619 49.3964ZM52.5739 49.2237C52.5806 49.1706 52.5806 49.1756 53.6529 49.2619C53.2236 49.2453 52.9386 49.2354 52.5739 49.2237ZM24.0086 5.99217C23.6754 6.10006 23.3373 6.20795 23.0042 6.32082H22.9611C23.2677 6.20131 23.5843 6.08844 24.0086 5.99217ZM19.2435 7.56241L19.8816 7.34165L20.5313 7.12752C19.9529 7.35825 19.5767 7.47112 19.2435 7.56241ZM51.3359 0.672251C50.885 0.715408 50.5618 0.753585 50.2403 0.785123L50.2188 0.775164C50.7657 0.68885 50.7657 0.68885 51.3359 0.672251ZM94.193 3.55546C94.7947 3.6368 94.5146 3.59364 95.2339 3.70651C94.9223 3.70153 94.5527 3.65837 94.193 3.55546ZM94.2627 2.47986C94.5693 2.47986 94.198 2.4367 95.9532 2.67407C95.3416 2.66909 94.9223 2.5446 94.2627 2.47986ZM23.7881 5.81456C23.2246 6.0237 22.8119 6.16479 22.1523 6.33078C22.7257 6.14819 23.2412 5.98221 23.7881 5.81456ZM78.5604 50.1001C78.8985 50.0786 79.0493 50.1333 78.282 50.1699C78.03 50.1549 78.1311 50.1267 78.5604 50.1001ZM29.8277 45.0558C30.5371 45.1736 30.5371 45.1736 31.0144 45.3413C30.5586 45.2334 30.2305 45.152 29.8277 45.0558ZM94.1549 3.0658C93.7903 3.01766 93.4422 2.9745 93.0876 2.92637C92.9102 2.90479 92.7345 2.87823 92.5456 2.85665C92.3633 2.83507 92.171 2.8135 91.9771 2.79192C92.5622 2.8301 92.9699 2.87823 93.303 2.92139C93.6295 2.96455 93.8815 3.0077 94.1549 3.0658ZM60.2941 49.7947C59.2798 49.7665 58.9102 49.735 58.8671 49.6819C59.3826 49.7234 59.8002 49.7566 60.2941 49.7947ZM64.431 49.9557C64.3763 49.9773 64.0763 49.9873 63.7763 49.9823C63.4697 49.9773 63.1532 49.9557 63.067 49.9176C63.5559 49.9342 63.9587 49.9441 64.431 49.9557ZM28.7023 44.518C29.3139 44.6574 29.8443 44.7919 30.3763 44.9429C29.8443 44.8251 29.3189 44.7271 28.7023 44.518ZM80.9686 49.896C81.1145 49.9126 81.2587 49.9342 81.489 49.9607C80.9852 49.9823 80.6471 49.9873 80.1813 50.0039C80.546 49.9557 80.7498 49.9292 80.9686 49.896ZM82.2084 0.710429C81.3929 0.69383 80.7018 0.640714 80.0255 0.609176C80.7117 0.629094 81.3979 0.629095 82.2084 0.710429ZM95.7858 3.75963C96.3129 3.82934 95.8074 3.74469 97.7117 4.0833L97.6587 4.08828C95.5289 3.75465 96.0112 3.83598 95.7858 3.75963ZM55.3269 49.4013C55.8042 49.4495 56.2219 49.4877 56.7059 49.5308C56.3992 49.5574 55.912 49.5142 55.3915 49.4661C55.37 49.4495 55.3534 49.4279 55.3269 49.4013ZM47.1294 48.6644L47.1178 48.681C46.2543 48.578 45.3907 48.4652 44.5322 48.3307L44.5604 48.3257C45.4123 48.4436 46.2708 48.5565 47.1294 48.6644ZM98.0449 3.3347C98.3018 3.3513 98.5603 3.37786 98.8172 3.41105C98.9465 3.42599 99.0807 3.44259 99.215 3.46417C99.3492 3.48575 99.4835 3.51231 99.6277 3.53388C99.7354 3.59364 99.7354 3.59364 99.2796 3.56044C98.8603 3.48077 98.4907 3.41603 98.0449 3.3347ZM11.5465 38.4295C11.6642 38.5042 11.7819 38.5806 11.8996 38.6553C12.0123 38.73 12.1299 38.8063 12.2493 38.881C11.7172 38.6553 11.3145 38.4295 10.8852 38.1009C11.1322 38.2254 11.3427 38.3333 11.5465 38.4295ZM97.0372 3.13551C96.2482 3.0077 96.5698 3.06082 95.8355 2.94297C96.414 3.00106 97.7233 3.19527 98.4095 3.34134C97.8741 3.2766 97.4499 3.22847 96.8598 3.16373C96.9394 3.15211 96.9825 3.14215 97.0372 3.13551ZM21.6103 6.52997C20.2794 7.01963 19.2982 7.37983 19.0131 7.42298C19.9148 7.11092 20.8263 6.73911 21.6103 6.52997ZM4.55559 33.2507C4.22245 32.9436 3.93903 32.6581 3.70202 32.4058C3.27276 31.9112 3.16668 31.7552 3.04238 31.6091C2.92967 31.4597 2.80205 31.3186 2.40925 30.7874C2.37776 30.7277 2.34461 30.6729 2.31809 30.6198C2.37776 30.6945 2.44737 30.7808 2.52195 30.8837C2.59819 30.9916 2.68935 31.0978 2.78051 31.2223C2.97277 31.4647 3.18823 31.7336 3.41364 31.9975C3.85285 32.5187 4.32024 33.0084 4.55559 33.2507ZM46.5393 48.3689C46.0835 48.2992 46.362 48.3042 46.8078 48.3523C47.252 48.3955 47.8636 48.4818 48.084 48.5897C47.5321 48.5133 47.0216 48.4436 46.5393 48.3689ZM36.9529 2.86661C37.6871 2.65747 39.1092 2.42674 40.1931 2.28067L40.0754 2.31885C39.0711 2.48484 38.0634 2.65747 36.9529 2.86661ZM43.8029 48.0087C42.9394 47.9108 42.2964 47.7763 41.5174 47.6203C42.9925 47.8195 43.3521 47.8693 43.8029 48.0087ZM17.1353 8.2247C15.2575 8.97165 14.142 9.52107 13.5139 9.82649C12.8874 10.1385 12.7481 10.2083 12.8658 10.102C14.0078 9.53103 14.8564 9.14926 15.4779 8.87538C15.7895 8.73595 16.0464 8.62142 16.2552 8.53676C16.4657 8.44547 16.6265 8.37409 16.7541 8.32596C17.2596 8.11681 17.1684 8.16495 17.1353 8.2247ZM18.8474 41.3775C19.0397 41.4472 20.0275 41.8173 21.0087 42.1626C21.9898 42.5112 22.9677 42.8349 23.1285 42.8996C22.8169 42.8066 21.8622 42.5178 20.9225 42.1941C19.9893 41.8721 19.0778 41.5169 18.8474 41.3775ZM4.13792 32.5502C4.27051 32.6581 4.60862 32.9818 5.0064 33.3785C5.51025 33.8848 5.93952 34.2549 6.28758 34.5404C6.46492 34.6865 6.62071 34.8044 6.76657 34.9123C6.90579 35.0201 7.02844 35.1114 7.14114 35.1911C7.36158 35.3521 7.53229 35.4716 7.67317 35.5795C7.81239 35.6858 7.92509 35.7837 8.04277 35.8966C7.3566 35.4235 6.92733 35.0899 6.61574 34.8425C6.53453 34.7828 6.46492 34.7297 6.40028 34.6749C6.3373 34.6268 6.2826 34.5786 6.22957 34.5355C6.12184 34.4442 6.02571 34.3695 5.93952 34.2931C5.75721 34.1371 5.58484 33.986 5.31799 33.7387C5.24838 33.6756 5.17214 33.6043 5.09259 33.5296C5.01137 33.4482 4.92519 33.3686 4.82906 33.2723C4.73293 33.1744 4.6252 33.0665 4.50752 32.9486C4.39482 32.8308 4.26554 32.7013 4.13792 32.5502ZM0.569527 24.133C0.574499 23.7512 0.559583 23.8326 0.61262 23.3263C0.622565 23.2616 0.629194 23.1918 0.639138 23.1055C0.655713 23.0259 0.672286 22.9346 0.687203 22.8267C0.708749 22.7188 0.735268 22.6009 0.763444 22.4665C0.773388 22.3968 0.794935 22.327 0.811509 22.2573C0.833055 22.181 0.847972 22.1013 0.869518 22.02C0.955703 21.6913 1.08498 21.3095 1.26232 20.8531C1.44464 20.4016 1.68496 19.8854 2.0181 19.3144L2.06119 19.2878C1.73303 19.8688 1.35348 20.6589 1.07338 21.5253C0.934157 21.9552 0.816481 22.4067 0.735268 22.8532C0.65074 23.2948 0.596046 23.7296 0.569527 24.133ZM2.82857 18.0943C3.00591 17.8354 3.32745 17.4055 3.74512 16.9324C4.15781 16.4594 4.66332 15.9315 5.18374 15.4585C5.70417 14.9788 6.23454 14.5439 6.66878 14.2053C7.10965 13.8666 7.45273 13.6293 7.6019 13.533C7.27042 13.7803 6.26769 14.5173 5.2749 15.4253C5.02298 15.651 4.77602 15.8933 4.53404 16.1307C4.29869 16.3731 4.06665 16.6137 3.85285 16.8511C3.42855 17.3192 3.07552 17.7707 2.82857 18.0943ZM9.19632 36.6335C9.30405 36.7033 9.76481 36.9937 10.4195 37.3755C11.0742 37.7623 11.9161 38.2304 12.7796 38.6769C14.5066 39.5699 16.3099 40.3384 16.6414 40.4845C16.5618 40.4562 16.0464 40.2521 15.3221 39.935C14.6028 39.618 13.6763 39.1881 12.768 38.72C11.8614 38.2569 10.9714 37.7623 10.3118 37.3589C9.65211 36.9605 9.21787 36.6651 9.19632 36.6335ZM17.838 41.3924C18.5955 41.6829 18.5955 41.6829 18.917 41.7642C19.807 42.1194 20.4236 42.3452 20.8595 42.5062C21.2937 42.6622 21.534 42.7535 21.6898 42.8066C21.9965 42.9212 21.9202 42.9046 22.2268 43.0274C21.5291 42.8448 21.0087 42.6672 20.3805 42.4315C19.754 42.1941 19.0131 41.9037 17.8861 41.4738C17.8712 41.4406 17.8546 41.414 17.838 41.3924ZM12.7051 39.0902C12.8443 39.0968 13.605 39.5151 14.8182 40.0861H14.8282C15.574 40.4363 16.1011 40.6671 16.4442 40.8231C16.7922 40.9791 16.953 41.0538 16.9795 41.0754C17.0126 41.097 16.8999 41.0588 16.7011 40.9841C16.6049 40.9409 16.4806 40.8928 16.3414 40.8397C16.2022 40.7849 16.0464 40.7202 15.8806 40.6505C15.2144 40.3716 14.379 39.9898 13.7293 39.6661C13.0796 39.3441 12.6238 39.0852 12.7051 39.0902ZM44.4195 48.1913C46.2277 48.4602 47.4459 48.5897 48.2183 48.681C48.9956 48.7722 49.3337 48.8154 49.3818 48.8801C49.0602 48.8469 48.4271 48.7772 47.6548 48.681C46.8774 48.583 45.9592 48.4652 45.0642 48.3423C43.2825 48.0884 41.6152 47.8095 41.4262 47.7763C42.5002 47.9058 43.014 47.9705 43.3787 48.0253C43.7449 48.0834 43.9587 48.1166 44.4195 48.1913ZM36.2336 46.6742C36.7275 46.7605 36.8717 46.7721 37.1302 46.8086C37.3871 46.8518 37.7567 46.9165 38.6965 47.0891C39.5699 47.2501 39.7473 47.2667 39.9147 47.2883C40.0754 47.3149 40.2246 47.3414 41.045 47.5141C39.9561 47.4228 38.6103 47.1754 37.9821 47.0509C36.9363 46.8302 36.3148 46.7223 35.8739 46.6376C35.4347 46.5513 35.1828 46.4916 34.8712 46.3621C35.1977 46.4268 35.5093 46.4866 35.8474 46.5513C35.9817 46.5945 36.0993 46.631 36.2336 46.6742ZM35.6054 46.6476C35.3104 46.6526 35.1828 46.6376 34.48 46.4866C32.8541 46.1413 31.679 45.8625 30.8205 45.6533C29.957 45.4425 29.41 45.3031 29.0554 45.2068C28.3427 45.0126 28.3742 45.001 28.1388 44.9097C30.6431 45.5604 33.1011 46.1314 35.6054 46.6476ZM29.8343 45.2599C29.8493 45.2649 29.8062 45.25 29.7432 45.2218C28.0841 44.8616 26.3687 44.3354 25.3975 44.0665C24.3782 43.786 23.7831 43.5768 23.3903 43.4258C22.9992 43.2697 22.8119 43.1685 22.618 43.0921C22.9511 43.2 23.75 43.464 24.5704 43.7212C25.3925 43.9802 26.2295 44.2325 26.609 44.3619C26.8029 44.4217 27.741 44.6624 28.7769 44.9213C29.8062 45.1736 30.9332 45.4425 31.4917 45.6201C32.0652 45.728 32.3287 45.8193 32.6718 45.9272C33.2088 46.0019 33.5303 46.0567 33.7707 46.1048C34.0127 46.1579 34.1684 46.2061 34.3607 46.2542C34.0773 46.2227 33.4226 46.1148 32.811 45.9853C32.1995 45.8575 31.631 45.7114 31.5083 45.6201C31.1851 45.5504 31.1371 45.5454 30.9879 45.5122C30.8371 45.4807 30.5802 45.4209 29.8343 45.2599ZM40.392 47.6054C40.0423 47.519 39.7688 47.4593 39.5003 47.3945C39.0561 47.368 38.4015 47.2667 37.7567 47.1422C37.1137 47.0194 36.4855 46.8733 36.0894 46.7605C36.2866 46.7986 36.9363 46.9165 37.6341 47.046C38.3252 47.1688 39.0777 47.3099 39.4788 47.3945C40.2511 47.524 40.6539 47.5788 40.392 47.6054ZM8.57977 12.6084L8.47701 12.6715L8.52507 12.6184C8.2632 12.806 7.65162 13.2259 6.90579 13.7969C6.16493 14.3712 5.28982 15.1082 4.50255 15.8933C4.10477 16.2867 3.73517 16.6951 3.39706 17.0885C3.06392 17.4752 2.7689 17.857 2.52858 18.1906C2.04462 18.8629 1.77115 19.3476 1.73966 19.3525C1.83579 19.1749 1.92197 19.0239 2.00153 18.8944C2.04462 18.8297 2.08274 18.7716 2.12086 18.7168C2.15732 18.6587 2.19544 18.6106 2.23191 18.5608C2.30317 18.4595 2.36616 18.3732 2.43577 18.2869C2.5004 18.2072 2.56504 18.1209 2.63465 18.0346C2.71587 17.8786 2.91973 17.5665 3.25121 17.1632C3.57938 16.7598 4.02522 16.2701 4.56553 15.7489C4.69978 15.6195 4.84563 15.49 4.98983 15.3555C5.13568 15.2211 5.28485 15.0866 5.44064 14.9522C5.74726 14.6783 6.07874 14.4094 6.41685 14.1355C7.09805 13.5911 7.82731 13.0533 8.55822 12.5371C8.55822 12.5653 8.55159 12.5869 8.54662 12.6084C9.07202 12.22 9.65708 11.8715 10.2372 11.5428C10.8156 11.2208 11.3841 10.9137 11.878 10.6183C11.9112 10.5967 12.0935 10.5153 12.2907 10.424C11.8946 10.6498 11.283 10.9884 10.6184 11.3702C9.94713 11.7519 9.22284 12.1885 8.58474 12.5802L8.57977 12.6084ZM0.693833 26.1663C0.773388 26.5382 0.847971 26.7954 0.907638 27.0212C0.972277 27.2536 1.02531 27.4577 1.09492 27.7266C1.38 28.4902 1.74463 29.2106 2.14738 29.8828C2.34461 30.2214 2.56007 30.5501 2.78051 30.8671C2.99928 31.1842 3.23132 31.4912 3.4617 31.7917C3.16668 31.4431 2.9247 31.1261 2.71587 30.8289C2.60814 30.6845 2.51201 30.5501 2.42582 30.4156C2.38273 30.3459 2.33964 30.2812 2.29654 30.2164C2.26008 30.1517 2.22196 30.0936 2.18384 30.0339C1.88882 29.5442 1.68496 29.1508 1.51922 28.7856C1.35348 28.4205 1.21426 28.0818 1.08001 27.6785C1.0104 27.4743 0.945758 27.2585 0.876147 27.0112C0.842999 26.8867 0.816481 26.7523 0.77836 26.6129C0.763444 26.5481 0.751842 26.4734 0.735268 26.3971C0.720351 26.3224 0.703777 26.2477 0.693833 26.1663ZM27.9996 4.56135C28.2946 4.49661 28.5134 4.44848 28.7338 4.40034C29.5609 4.1746 30.0813 4.04015 30.4078 3.95881C30.7293 3.87914 30.8536 3.86254 30.8851 3.87914C30.9382 3.91566 30.4177 4.02355 29.1681 4.34556C29.062 4.35718 28.8996 4.37876 28.7454 4.39536C28.4073 4.52981 28.4073 4.52981 27.8604 4.64268C27.5107 4.76054 27.5107 4.77049 27.1891 4.85681C26.8676 4.9481 26.2179 5.11077 24.5986 5.58384C25.7671 5.16389 26.0952 5.08255 26.3737 5.02446C26.5079 4.99126 26.6422 4.96968 26.856 4.91656C27.0764 4.86843 27.3814 4.78709 27.8753 4.64268C27.9134 4.62111 27.9449 4.59953 27.9996 4.56135ZM11.5134 11.0648C11.3261 11.1876 11.1653 11.2789 11.0145 11.3602C10.8637 11.4399 10.7245 11.5096 10.5852 11.581C10.4245 11.7038 10.156 11.8715 9.74824 12.1238C9.34052 12.381 8.78363 12.7213 8.05271 13.2093C8.76208 12.6715 9.74327 12.1022 10.3432 11.6656C10.4626 11.6241 10.5272 11.6026 10.5902 11.581C10.8968 11.4034 11.2018 11.2307 11.5134 11.0648ZM97.0637 2.89483C96.8863 2.87325 96.6924 2.85167 96.4355 2.81848C96.2482 2.72718 96.7355 2.78196 97.0852 2.85665C97.4233 2.88819 97.7664 2.92637 98.1625 2.96455C98.7691 3.12057 98.6133 3.07742 98.6614 3.13053C97.9537 3.02928 98.373 3.10398 97.0686 2.85167C97.0637 2.86661 97.0637 2.87823 97.0637 2.89483ZM14.8497 9.375L14.9691 9.31524L15.1083 9.28371C14.1536 9.73022 13.8255 9.90782 13.6382 9.99414C13.4509 10.0854 13.4078 10.0954 13.0481 10.2581L12.6719 10.4622L12.6454 10.4672L13.0365 10.263C13.6813 9.95596 13.1128 10.2298 13.4509 10.0473C13.6912 9.92442 13.7558 9.88624 13.9382 9.79993C14.1205 9.71362 14.4155 9.57917 15.1232 9.27873L14.8497 9.375ZM79.6443 0.68885L80.594 0.743626C81.0813 0.743626 80.7382 0.722048 81.8437 0.796742C81.5272 0.8233 80.3156 0.780144 80.594 0.736987C80.304 0.743626 80.004 0.743626 79.6443 0.68885ZM31.5017 3.58202C31.3741 3.6368 31.2663 3.68493 31.1636 3.72809L31.7171 3.59862L31.6956 3.61522L31.1801 3.72311C30.9597 3.72809 30.9597 3.72809 31.5017 3.58202ZM52.5093 49.0411L52.5739 49.0511C52.1563 49.0295 52.3651 49.0461 51.5546 48.988L51.5115 48.9664L52.2574 49.0362L52.5093 49.0411ZM26.6687 4.92154L26.6041 4.93316L26.851 4.84685C26.8344 4.82527 26.9952 4.78211 27.2538 4.729L26.8344 4.85183L26.6687 4.92154ZM77.6588 0.381772C76.8931 0.393391 76.1953 0.360194 75.5506 0.302098C75.3102 0.318697 75.1428 0.318697 74.9555 0.307078C74.7732 0.297118 74.5644 0.28052 74.2429 0.263921C74.2313 0.307078 74.2313 0.307078 73.7009 0.285499C73.9047 0.27554 74.0804 0.268901 74.2578 0.263921C73.3197 0.268901 72.3799 0.28052 71.48 0.225744C71.0872 0.205825 70.8568 0.194206 70.7126 0.194206C70.5667 0.189227 70.5087 0.194206 70.4607 0.199186C70.3579 0.210805 70.2933 0.232383 69.6386 0.237363C69.5375 0.215784 69.4414 0.199185 69.3436 0.177607C69.1513 0.194206 68.2613 0.199185 67.3696 0.210805C66.4746 0.220764 65.5779 0.225744 65.3641 0.232383C65.6592 0.215785 66.5542 0.189226 67.4177 0.172627C68.2878 0.156029 69.1347 0.156029 69.3336 0.184247C69.9071 0.172627 70.4391 0.167648 70.9264 0.162668C71.4104 0.167648 71.8545 0.167648 72.2573 0.172627C73.0611 0.184247 73.7059 0.189227 74.2147 0.194206C74.7301 0.199186 75.1064 0.215785 75.3798 0.220764C75.6483 0.225744 75.8141 0.220764 75.9003 0.210805H75.9052C75.4329 0.199185 74.9821 0.177607 74.5528 0.172627C74.1235 0.162668 73.7158 0.156029 73.3197 0.151049C72.5308 0.129471 71.8114 0.112872 71.1302 0.0979329C69.7679 0.0763546 68.5712 0.0763547 67.3646 0.112872C67.0862 0.107892 66.8011 0.102913 66.5061 0.0979329C66.2061 0.0979329 65.8945 0.102913 65.5514 0.112872C65.568 0.097933 65.6476 0.0912933 65.0691 0.102913C64.7791 0.107892 64.3283 0.119511 63.6205 0.14109C62.9128 0.162669 61.9466 0.194205 60.6422 0.253962C60.6704 0.247322 60.7068 0.237363 60.7715 0.215784C59.951 0.268901 59.3975 0.307078 59.0494 0.323677C58.7014 0.340275 58.5555 0.345255 58.529 0.333636C58.4809 0.318697 58.9201 0.263921 59.2433 0.232383C59.5964 0.232383 59.9941 0.232383 60.5146 0.184247C60.6206 0.146069 60.2196 0.124491 60.9273 0.0647353C61.2654 0.0647353 61.6516 0.0647353 62.0858 0.0647353C62.0974 0.043157 62.1123 0.0215783 62.1239 0C59.8433 0.0813344 59.0875 0.129471 58.5771 0.146069C58.0732 0.172627 57.8213 0.177607 56.5434 0.258941L56.5931 0.247322C56.7324 0.242343 56.8716 0.237363 57.0158 0.232383C57.0854 0.210805 57.155 0.184247 57.2362 0.156029C56.4324 0.205825 56.313 0.237363 56.0827 0.268901C55.8573 0.307078 55.5142 0.340275 54.2595 0.403351L54.3126 0.381772L55.67 0.27554C55.4545 0.247322 54.6822 0.297119 53.8999 0.366833C53.1159 0.431569 52.322 0.516223 52.0601 0.544441L52.2839 0.559379L52.0751 0.580958C52.0751 0.566019 52.0751 0.5544 52.0701 0.544441C50.6431 0.650673 50.4989 0.667272 50.2735 0.68885C50.0481 0.710428 49.7414 0.743626 47.9929 0.919573C47.3597 1.02747 47.0216 1.06066 46.5609 1.04406C46.2228 1.11378 46.1316 1.16856 45.4504 1.26483C45.3758 1.23827 45.2996 1.21005 45.225 1.18349L45.0377 1.20507C44.5322 1.35612 43.4764 1.50053 42.5533 1.62502C41.6301 1.74785 40.8528 1.86073 40.9058 1.91052C40.9539 1.95866 39.8069 2.201 38.965 2.2591C39.2749 2.201 39.5219 2.1512 39.7473 2.10307C39.7639 2.00679 39.7639 2.00679 39.4572 2.02837H39.4738C39.2815 2.05991 39.0876 2.09311 38.8954 2.12465C38.5722 2.24914 38.7545 2.19436 38.0203 2.32881L37.9821 2.35703C38.3153 2.30225 38.6484 2.24914 39.1042 2.17942C37.5479 2.50642 36.0463 2.72718 37.1667 2.45828C37.8694 2.29727 37.896 2.27569 37.344 2.34043C36.0347 2.61431 35.7662 2.68403 35.7347 2.7056C35.6966 2.7222 35.8955 2.69564 35.5143 2.79192C35.3054 2.84503 35.027 2.88819 34.7585 2.93799C34.495 2.9911 34.243 3.04422 34.0872 3.11393C34.2911 3.07742 34.49 3.04422 34.7104 3.00106C33.953 3.21685 33.7292 3.29154 33.3795 3.37288C33.0315 3.45421 32.5541 3.53886 31.3094 3.8144C31.8348 3.67995 32.221 3.58202 32.7298 3.45421C32.4199 3.51231 32.2309 3.55048 32.0486 3.58202C32.816 3.34632 32.1895 3.43761 31.7387 3.48575C32.4895 3.30316 33.1491 3.15211 33.8138 3.00106C31.2713 3.50235 28.7123 4.13642 26.1914 4.84685C26.3472 4.82029 27.5156 4.49163 28.6592 4.20116C29.8062 3.9057 30.9282 3.64676 30.9813 3.66335C30.7459 3.73307 30.1443 3.9057 29.5327 4.07168C28.9211 4.23933 28.3046 4.40034 28.0211 4.42192C27.8753 4.48665 27.7675 4.52981 27.6565 4.57795C26.6786 4.78211 25.6278 5.08255 24.5174 5.42283C24.5224 5.44939 24.5273 5.47096 24.5389 5.5025C24.1362 5.58881 23.8461 5.65355 23.4981 5.72824C23.3257 5.81456 23.2246 5.8627 23.0638 5.94403C22.7638 6.00876 22.8219 5.93905 22.2219 6.13658L22.4688 6.07848C22.1572 6.19633 21.8506 6.31418 21.4595 6.47021C20.9076 6.60466 20.3706 6.84202 19.812 7.04619C19.7855 7.04121 19.7639 7.03623 19.7374 7.02959C19.0397 7.29849 18.2673 7.53087 17.7684 7.79977C16.9911 8.09025 16.8237 8.15997 16.648 8.22968C16.5618 8.26786 16.4707 8.30438 16.2983 8.38073C16.1276 8.45543 15.8757 8.56332 15.4679 8.74591C14.6459 9.11108 14.5829 9.13266 14.3459 9.23557C14.2282 9.28869 14.0674 9.36504 13.7509 9.52107C13.4393 9.68208 12.9669 9.92442 12.2377 10.3278C12.2377 10.3112 12.0023 10.4191 11.6427 10.6066C11.283 10.7959 10.8007 11.0648 10.2952 11.3602C9.79133 11.6557 9.27091 11.9843 8.83667 12.2748C8.40243 12.5587 8.04774 12.8126 7.8704 12.9404C7.57538 13.113 7.13617 13.4151 6.6953 13.7471C6.25111 14.0874 5.81024 14.4576 5.50528 14.7597C5.34451 14.8941 5.19369 15.0219 5.06607 15.1348C4.93182 15.2477 4.82409 15.3506 4.75448 15.4203C4.64674 15.5332 4.57713 15.6029 4.50255 15.6726C4.43294 15.744 4.36167 15.807 4.26554 15.9C4.14289 16.0178 4.04013 16.1141 3.96555 16.1954C3.88434 16.2751 3.82633 16.3399 3.78324 16.3946C3.69208 16.4909 3.65396 16.544 3.6175 16.5988C3.54125 16.7067 3.46667 16.798 3.02083 17.3192C2.80205 17.5765 2.48549 17.9748 2.15235 18.4695C1.98661 18.7118 1.81921 18.9857 1.65347 19.2662C1.4927 19.5517 1.33193 19.8472 1.19768 20.1543C0.912611 20.7551 0.698805 21.3743 0.559583 21.8905C0.425333 22.4117 0.365667 22.8217 0.349092 23.0093C0.252963 23.4939 0.194954 24.0483 0.199926 24.6127C0.199926 25.1771 0.252963 25.758 0.360694 26.2958C0.461796 26.8336 0.607648 27.3283 0.756814 27.7482C0.902666 28.1682 1.05846 28.5068 1.16454 28.7425C1.10155 28.6412 1.06841 28.5931 1.00377 28.4902C1.02034 28.5284 1.05183 28.608 1.10653 28.7209C1.13305 28.7807 1.16454 28.8504 1.19768 28.9251C1.23415 29.0014 1.27227 29.0877 1.32033 29.1724C1.49767 29.5392 1.7612 30.0173 2.10429 30.5385C2.27003 30.8024 2.46394 31.0713 2.67278 31.3518C2.88161 31.6257 3.10702 31.9162 3.349 32.19C3.58932 32.4755 3.84788 32.7544 4.10975 33.0299C4.37327 33.3038 4.65172 33.5727 4.93182 33.8317C6.04725 34.8741 7.2439 35.7671 8.16045 36.3962C8.61623 36.7199 9.00904 36.9672 9.28251 37.1498C9.56095 37.3207 9.72172 37.4286 9.73167 37.4402C8.98749 36.9987 9.22781 37.1332 8.86816 36.9556C8.35933 36.6003 8.02122 36.3646 7.78587 36.197C7.54389 36.031 7.40467 35.9331 7.28699 35.8584C7.06158 35.7073 6.93231 35.6376 6.39034 35.148C6.00913 34.8093 5.52185 34.4608 5.17711 34.1919C4.82906 33.7935 4.10975 33.1262 3.51971 32.4805C2.91973 31.8415 2.46394 31.2223 2.49046 31.1476C2.43079 31.0779 2.37776 31.0066 2.32472 30.9368C2.27003 30.8671 2.22196 30.7974 2.16892 30.7277C2.06616 30.5883 1.96506 30.4472 1.86728 30.2978C1.67502 29.9957 1.47613 29.6621 1.28387 29.2106C1.32033 29.2869 1.35845 29.3616 1.40154 29.4413C1.44961 29.5226 1.49767 29.6089 1.55734 29.7168C1.2673 29.1674 1.02034 28.6412 0.811509 28.1084C0.602676 27.5706 0.44025 27.0212 0.34412 26.4352C0.327546 26.3971 0.317602 26.3556 0.306 26.3174C0.301028 26.2742 0.291083 26.2361 0.279481 26.1995C0.264565 26.1232 0.24799 26.0435 0.231417 25.9622C0.20987 25.8012 0.17838 25.6236 0.161806 25.3928C0.135287 25.1555 0.118713 24.865 0.118713 24.4782C0.118713 24.3803 0.118713 24.2791 0.123685 24.1662C0.123685 24.0583 0.135287 23.9404 0.140259 23.816C0.145232 23.6931 0.156834 23.5637 0.173407 23.4242C0.188324 23.2898 0.204898 23.1437 0.226444 22.9877C0.274509 22.7304 0.377269 22.2839 0.526435 21.8158C0.741898 20.9062 1.11647 20.0082 1.61535 19.228C1.66341 19.1268 1.70651 19.0289 1.75457 18.9376C1.80429 18.8463 1.85236 18.76 1.9054 18.6736C1.95346 18.589 2.00816 18.5027 2.06616 18.4164C2.12583 18.3301 2.19047 18.2388 2.26008 18.1425C2.32969 18.0512 2.3993 17.9433 2.48549 17.8354C2.52858 17.7823 2.57002 17.7225 2.61974 17.6628C2.66117 17.6047 2.71587 17.5399 2.76393 17.4752C2.96779 17.2113 3.21972 16.9042 3.53628 16.5341C4.03516 15.9531 4.55062 15.4634 5.05447 15.0169C5.56495 14.5704 6.06383 14.1671 6.54613 13.7587C6.82458 13.5214 7.22733 13.216 7.68808 12.8973C8.1505 12.5752 8.67093 12.2416 9.18472 11.9296C9.6952 11.6175 10.1991 11.3337 10.6117 11.0913C11.0311 10.854 11.3576 10.6664 11.53 10.5469C11.53 10.5469 11.5946 10.5104 11.7007 10.4556C11.8034 10.3975 11.9542 10.3162 12.1366 10.2249C12.4896 10.0307 12.9719 9.78997 13.4509 9.55261C13.9332 9.31524 14.4205 9.0895 14.7917 8.91853C15.1613 8.75089 15.4133 8.63801 15.4298 8.63303C13.547 9.44969 11.9957 10.2365 10.7145 10.9569C9.43167 11.6773 8.41734 12.3379 7.6019 12.9089C6.78148 13.4849 6.15996 13.9795 5.67102 14.3878C5.18374 14.8028 4.81912 15.1348 4.52907 15.4153C4.38985 15.5547 4.26057 15.6792 4.14289 15.7921C4.03019 15.9099 3.92743 16.0129 3.8313 16.1191C3.63241 16.3249 3.4617 16.5125 3.26281 16.7332C3.16668 16.8461 3.05895 16.959 2.94625 17.0984C2.83354 17.2279 2.7109 17.3789 2.57002 17.5499C2.43577 17.7275 2.2866 17.9217 2.12086 18.1524C2.03467 18.2703 1.95346 18.3998 1.8623 18.5292C1.81424 18.599 1.77115 18.6687 1.72308 18.7384C1.67502 18.8147 1.63192 18.8894 1.58386 18.9641C1.55071 19.0504 1.52917 19.1102 1.4927 19.1849C1.45955 19.2662 1.41812 19.3625 1.34188 19.5135C1.2673 19.6696 1.15956 19.8737 1.01537 20.1958C0.876147 20.5145 0.687203 20.9394 0.499916 21.5353C0.526435 21.434 0.543009 21.3527 0.564555 21.283C0.581129 21.2182 0.602676 21.1585 0.617592 21.0954C0.596046 21.1535 0.569527 21.2083 0.543009 21.283C0.51649 21.3527 0.483342 21.439 0.44025 21.5635C0.473398 21.449 0.509861 21.3427 0.538037 21.2448C0.569528 21.1535 0.602675 21.0672 0.629194 20.9875C0.687203 20.8199 0.74687 20.6854 0.799907 20.546C0.586102 21.0572 0.435278 21.5303 0.322574 21.9552C0.214843 22.3802 0.145232 22.757 0.0971668 23.0906C0.00600981 23.7579 -0.00393505 24.2409 0.00103728 24.6061C0.0060096 24.699 0.00600949 24.7837 0.00600949 24.86C0.0109818 24.9397 0.0176113 25.016 0.0176113 25.0808C0.0225837 25.1505 0.0225834 25.2152 0.0275558 25.2733C0.0325281 25.3331 0.0391579 25.3862 0.0441298 25.441C0.0491021 25.5489 0.0607041 25.6501 0.0706483 25.753C0.0756206 25.8493 0.0822503 25.9572 0.0971668 26.0651C0.14026 26.2311 0.161806 26.3174 0.199926 26.4834C0.221472 26.5697 0.243018 26.6776 0.286111 26.8286C0.301028 26.9033 0.322574 26.9896 0.349092 27.0859C0.382241 27.1838 0.413731 27.2967 0.451852 27.4245C0.473398 27.5274 0.494944 27.6237 0.521463 27.7316C0.547981 27.8395 0.586101 27.9574 0.634166 28.0918C0.730295 28.3607 0.859573 28.7209 1.1115 29.2272C1.36342 29.7318 1.72308 30.3941 2.31809 31.2223C2.61974 31.6356 2.97276 32.0888 3.40203 32.5785C3.6175 32.8258 3.85285 33.0731 4.10477 33.3354C4.36167 33.5943 4.6368 33.8632 4.93182 34.1371C5.11413 34.2666 5.22684 34.3479 5.31136 34.411C5.39258 34.4823 5.44561 34.5305 5.51025 34.5886C5.63953 34.7131 5.81024 34.8956 6.35884 35.3322C7.24887 36.036 8.05934 36.5904 8.77203 37.0585C9.49134 37.5199 10.1129 37.8917 10.6499 38.1988C11.1869 38.5042 11.6377 38.7516 12.0123 38.9507C12.1995 39.0487 12.3669 39.14 12.5227 39.2147C12.6719 39.296 12.8111 39.3657 12.9305 39.4238C13.9067 39.9085 13.9166 39.8919 14.0078 39.9135C14.4271 40.1243 15.1829 40.4894 16.1276 40.8978C16.6 41.1086 17.1137 41.3227 17.6557 41.5435C18.1977 41.7642 18.7662 41.985 19.3347 42.1941C20.4717 42.6241 21.6202 43.0224 22.6014 43.3444C23.5843 43.6631 24.3947 43.9105 24.8555 44.0449C23.7715 43.6997 23.3903 43.5718 23.5147 43.5718C24.4478 43.8673 25.1721 44.0764 25.724 44.2375C26.2775 44.4001 26.6637 44.5064 26.9422 44.5877C27.4891 44.7437 27.5919 44.7819 27.6714 44.835C26.6853 44.5711 25.7621 44.3138 24.8339 44.0383C25.429 44.2225 26.846 44.6524 28.8846 45.1852C30.9233 45.7164 33.5834 46.3472 36.6628 46.9547C38.4976 47.3149 39.4639 47.4809 40.1384 47.6103C40.4765 47.6701 40.745 47.7182 41.0135 47.7664C41.282 47.8195 41.5439 47.8626 41.8886 47.9224C42.5698 48.0402 43.5411 48.2079 45.3907 48.4701C46.3139 48.5996 47.4625 48.7507 48.8995 48.9233C50.3431 49.0893 52.0751 49.2768 54.1783 49.4611L54.1949 49.4495C53.2236 49.3632 52.2574 49.2719 51.2928 49.1706L51.3027 49.154C52.5093 49.2768 53.401 49.3532 54.0606 49.4063C54.7203 49.4611 55.1495 49.4926 55.433 49.5142C55.9965 49.5574 55.9749 49.574 56.0445 49.6221C58.1594 49.7781 59.0063 49.8263 59.3925 49.8478C59.7787 49.8694 59.6991 49.8578 59.951 49.8578C61.2488 49.8694 60.7764 49.9773 62.172 50.0039C63.9852 50.0304 65.278 50.2031 66.6022 50.1649C66.3354 50.1599 66.0669 50.1549 65.7122 50.1483C66.158 50.1217 66.158 50.1217 66.5807 50.1649C66.7149 50.1649 66.8442 50.1599 67.0315 50.1599C66.6022 50.1051 66.1464 50.0636 65.4006 50.0354C65.1967 50.0304 64.9349 50.0039 65.0045 49.9923C65.0791 49.9873 65.4818 49.9923 66.6238 50.0354C66.6519 50.047 66.6834 50.057 66.7265 50.0786C67.3381 50.0636 67.895 50.0354 68.7651 50.0636C68.5016 50.0786 68.3143 50.0952 68.0458 50.1167C68.6143 50.1383 68.3143 50.1649 68.2447 50.1865C69.2309 50.208 69.3767 50.1699 69.5972 50.1549C69.8209 50.1383 70.1275 50.1433 71.4418 50.2246C71.9788 50.1649 71.7153 50.1267 71.1999 50.0852C71.5546 50.0852 71.9092 50.0852 72.2672 50.0852C72.6335 50.0786 73.0031 50.0736 73.3893 50.0736C73.3412 50.0902 73.2865 50.1118 73.2236 50.1383C73.8666 50.1433 74.5312 50.1267 75.2025 50.1118C75.5356 50.1051 75.8671 50.1001 76.2003 50.0952C76.5268 50.0902 76.8599 50.0852 77.1765 50.0852C76.6776 50.1333 76.2317 50.1649 75.6533 50.213C76.119 50.2246 76.2599 50.2346 76.7091 50.2346C77.1665 50.2346 77.9322 50.2246 79.6609 50.1599C86.3502 49.896 93.0229 49.3051 99.3426 48.3473C102.498 47.8693 105.566 47.2983 108.501 46.6476C111.435 45.9919 114.236 45.25 116.853 44.4267C119.465 43.6084 121.902 42.7104 124.106 41.7526C126.312 40.7965 128.286 39.774 129.981 38.7366C131.67 37.7025 133.081 36.6435 134.176 35.6426C135.27 34.6433 136.043 33.7022 136.51 32.9387C136.563 32.8523 136.628 32.7544 136.692 32.6581C136.762 32.5668 136.831 32.4706 136.901 32.3793C136.971 32.293 137.035 32.2017 137.093 32.1253C137.153 32.0456 137.206 31.9759 137.244 31.9211C137.41 31.7004 137.383 31.6954 136.841 32.1851C136.515 32.4639 136.525 32.4224 136.611 32.3096C136.654 32.2548 136.719 32.1851 136.762 32.1253C136.805 32.0672 136.836 32.0191 136.82 32.0241C136.767 32.034 136.541 32.1585 136.328 32.2764C136.273 32.3096 136.215 32.3361 136.167 32.3627C136.112 32.3942 136.064 32.4158 136.021 32.4374C135.93 32.4805 135.865 32.5071 135.839 32.5071C135.779 32.5071 135.704 32.5502 135.613 32.6266C135.522 32.6963 135.404 32.7876 135.28 32.8889C135.035 33.0947 134.723 33.3088 134.402 33.3901C134.224 33.5196 134.095 33.5993 133.982 33.659C133.929 33.6906 133.881 33.7122 133.833 33.7337C133.779 33.7553 133.73 33.7769 133.682 33.7985C133.479 33.8798 133.248 33.9927 132.749 34.3147C132.555 34.4442 132.4 34.5355 132.272 34.6102C132.148 34.6915 132.051 34.7512 131.97 34.7944C131.816 34.8791 131.74 34.9172 131.66 34.9554C131.584 34.9919 131.51 35.0301 131.349 35.1164C131.193 35.2027 130.951 35.3322 130.55 35.5579C129.932 35.8849 129.981 35.8102 130.018 35.7455C130.034 35.714 130.051 35.6808 129.981 35.7024C129.91 35.7239 129.756 35.7936 129.428 35.9663C129.337 36.0144 129.257 36.0459 129.166 36.0841C129.075 36.1223 128.972 36.1605 128.849 36.2086C128.72 36.2568 128.569 36.3215 128.377 36.4078C128.183 36.4925 127.948 36.6003 127.658 36.7464C127.593 36.778 127.422 36.8327 127.497 36.7564C126.204 37.2411 125.533 37.4668 124.863 37.7141C124.696 37.7739 124.53 37.837 124.353 37.9017C124.171 37.9664 123.983 38.0312 123.774 38.1075C123.564 38.1872 123.334 38.2685 123.072 38.3598C122.942 38.403 122.803 38.4511 122.657 38.5042C122.508 38.5524 122.352 38.6022 122.187 38.6603C122.283 38.5955 122.374 38.5374 122.475 38.4677C121.012 38.9939 119.669 39.4304 118.414 39.8056C117.16 40.1824 115.995 40.506 114.879 40.7965C112.648 41.3775 110.615 41.8389 108.404 42.302C106.199 42.7585 103.818 43.2166 100.877 43.6897C99.4072 43.9204 97.7979 44.1628 95.9963 44.4001C94.198 44.6358 92.2075 44.8732 89.9766 45.0873C89.6982 45.1155 89.4131 45.1421 89.1297 45.1686C88.8446 45.1952 88.5546 45.2218 88.2595 45.25C87.6695 45.3031 87.0695 45.3463 86.4463 45.3994C85.2083 45.4973 83.8989 45.5886 82.5199 45.6683C81.141 45.7496 79.6924 45.8193 78.1643 45.8724C76.6345 45.9272 75.0252 45.9704 73.3363 45.9919C69.9552 46.0351 66.2376 45.9969 62.1455 45.8243C58.0566 45.6467 53.5883 45.3297 48.7221 44.7653C46.2874 44.4798 43.7549 44.1362 41.1262 43.6997C38.4976 43.2648 35.7662 42.7485 32.9503 42.1028C30.1343 41.4621 27.2272 40.6936 24.2539 39.7475C22.7738 39.2744 21.2772 38.7516 19.7755 38.1706C18.2723 37.5896 16.7657 36.9506 15.274 36.2302C14.5282 35.87 13.7873 35.4882 13.0581 35.0832C12.6885 34.8791 12.3288 34.6699 11.9642 34.4608C11.6045 34.24 11.2449 34.0242 10.8918 33.7935C9.47974 32.8839 8.11735 31.8564 6.94225 30.6895C6.35222 30.1036 5.81687 29.4844 5.35446 28.8288C4.89867 28.1731 4.51747 27.4893 4.2556 26.7805C3.99704 26.0751 3.84788 25.3547 3.83627 24.6227C3.82633 24.2575 3.85285 23.8923 3.91251 23.5205C3.97052 23.1553 4.06168 22.7885 4.19096 22.4183C4.31361 22.0515 4.47437 21.6863 4.65835 21.3261C4.84563 20.961 5.06607 20.6008 5.31136 20.2505C5.8003 19.5401 6.39034 18.8579 7.05496 18.2122C7.7146 17.5615 8.45049 16.9424 9.23279 16.3565C10.0167 15.7705 10.8537 15.2161 11.7222 14.6883C13.4608 13.6343 15.3436 12.6881 17.3176 11.8283C19.2916 10.9668 21.3633 10.1933 23.4981 9.48289C23.503 9.48289 23.692 9.42314 23.9754 9.32686C24.2539 9.23557 24.6351 9.11772 25.0113 8.99323C25.3925 8.87538 25.772 8.7625 26.0621 8.67121C26.3521 8.5849 26.551 8.52514 26.561 8.52016C26.3472 8.57992 26.1383 8.63801 25.9345 8.69279C26.1748 8.61146 26.7864 8.43385 27.5803 8.21309C28.3692 7.99232 29.3454 7.73504 30.305 7.49768C32.226 7.01465 34.1038 6.61628 34.3342 6.54657C34.2812 6.54657 34.2215 6.54159 34.137 6.54159C35.4397 6.27767 36.7109 6.00212 37.7849 5.788C38.8573 5.57222 39.7373 5.41619 40.2462 5.40125C40.6373 5.29834 40.9273 5.22862 41.1528 5.19044C41.834 5.08919 43.0091 4.89499 44.1096 4.73398C45.2035 4.57297 46.2228 4.43852 46.5774 4.40034C46.7167 4.32565 47.4244 4.24929 47.9133 4.1746C48.7221 4.05011 48.7072 4.11982 49.0818 4.09824C51.432 3.68991 53.7656 3.58866 56.0081 3.36292C54.6457 3.45421 53.9479 3.51231 53.5568 3.53886C53.159 3.57206 53.0728 3.57704 52.9286 3.57206L53.0198 3.5455C53.406 3.5289 53.7872 3.51231 54.1684 3.49073C55.0368 3.41105 55.9053 3.32972 56.9197 3.24838C56.6561 3.31976 56.9462 3.30814 57.4185 3.2766C58.5025 3.21187 58.9367 3.19527 59.2218 3.17369C59.5052 3.15211 59.6395 3.12555 60.1284 3.05086C59.5218 3.0824 59.0179 3.10895 58.529 3.13551C58.4693 3.15709 58.4279 3.17369 58.3732 3.19029C57.8859 3.19029 57.4567 3.19527 57.0373 3.20025C57.8047 3.099 58.6152 3.10398 59.4837 3.04422C59.1787 3.05086 58.9483 3.05584 58.6367 3.06082C59.608 2.96455 59.2268 2.99608 60.0522 2.92637C60.1218 2.93799 60.198 2.94795 60.2941 2.96952C61.5554 2.88321 62.3758 2.77532 63.652 2.8135C64.1078 2.78196 64.5155 2.75374 64.9349 2.72718C65.1487 2.73216 65.326 2.74378 65.5133 2.74876C66.1531 2.69564 66.5923 2.67407 67.3597 2.65747C67.7458 2.64751 68.2116 2.64087 68.8231 2.63589C69.4347 2.63589 70.1971 2.63091 71.1684 2.63589C70.096 2.56119 68.2232 2.68403 68.1535 2.58277C68.2828 2.57115 70.5137 2.53962 72.7562 2.58277C73.3147 2.58775 73.8716 2.59273 74.4036 2.60435C74.6655 2.60435 74.924 2.61431 75.1644 2.61929C75.4113 2.63091 75.6417 2.63589 75.8572 2.64087C76.7207 2.66909 77.3207 2.68901 77.4068 2.68901C77.1814 2.65747 76.5549 2.62593 75.8737 2.59273C75.529 2.57115 75.1809 2.55455 74.8594 2.53464C74.5312 2.51804 74.2429 2.50144 74.0224 2.47986L74.0871 2.4699C74.344 2.4699 74.5859 2.4699 74.8047 2.47986C75.0252 2.48484 75.229 2.49148 75.4113 2.49646C75.7876 2.51306 76.0975 2.51804 76.3726 2.528C76.9245 2.5446 77.3157 2.54958 77.74 2.5446C78.088 2.53962 78.2389 2.5446 78.3516 2.56119C78.4643 2.57115 78.5389 2.58775 78.7377 2.59771C79.6278 2.64087 80.5195 2.689 81.4145 2.73216H81.4194L80.4333 2.66245L80.4382 2.65747C80.7117 2.66245 80.9852 2.67407 81.2703 2.67905C81.4145 2.68403 81.5603 2.68403 81.7095 2.68901C81.8603 2.69564 82.0161 2.69564 82.1769 2.7056C81.6929 2.7388 83.2177 2.80354 82.8465 2.83009C83.1531 2.84503 83.458 2.86661 83.7531 2.88819C83.9039 2.83507 82.8846 2.80852 82.7337 2.74876C84.1077 2.84503 84.9712 2.89981 85.5513 2.94297C86.1298 2.99608 86.4248 3.03426 86.6717 3.09402C86.7049 3.099 86.9088 3.11393 86.9883 3.12057C86.9402 3.099 86.8971 3.0824 86.8375 3.05584C87.1441 3.09402 87.348 3.12057 87.4342 3.13053C87.5833 3.13551 87.9977 3.16871 88.6093 3.21187C88.7584 3.22847 88.9258 3.23843 89.0965 3.25502C89.2739 3.26996 89.4612 3.28656 89.6551 3.30814C90.0512 3.34632 90.4854 3.39445 90.9478 3.43761C91.4136 3.48575 91.9125 3.53886 92.4329 3.59364C92.9533 3.65174 93.4953 3.72311 94.0588 3.79282C94.6173 3.85756 95.1908 3.93226 95.7709 4.00197C96.3493 4.0833 96.9344 4.16962 97.5195 4.25427C97.8095 4.29743 98.1045 4.34059 98.3929 4.37876C98.5388 4.40034 98.683 4.42192 98.8288 4.4435C98.8984 4.45346 98.973 4.46508 99.0426 4.47504C99.1122 4.48665 99.1885 4.49661 99.2581 4.51321C99.8315 4.60451 100.39 4.70078 100.93 4.78709C101.206 4.83523 101.467 4.87839 101.731 4.92154C101.859 4.94312 101.993 4.9647 102.117 4.98628C102.245 5.00786 102.369 5.03442 102.498 5.05599C102.991 5.14729 103.458 5.23858 103.892 5.31991C104.326 5.40125 104.729 5.47594 105.084 5.54566C105.266 5.57886 105.432 5.61537 105.588 5.64857C105.739 5.68011 105.883 5.71331 106.017 5.73986C106.537 5.85274 106.854 5.91747 106.907 5.92743C106.382 5.8046 105.823 5.69173 105.276 5.57222C104.724 5.46432 104.187 5.35809 103.7 5.23858C104 5.29834 105.233 5.50748 106.451 5.77638C107.063 5.90585 107.669 6.03034 108.163 6.13658C108.646 6.24447 109.015 6.33576 109.149 6.36398C109.037 6.3424 108.291 6.14819 107.219 5.92245C106.677 5.8046 106.06 5.67015 105.4 5.52408C104.741 5.38963 104.038 5.26016 103.329 5.12073C102.976 5.05101 102.621 4.9813 102.273 4.91158C101.918 4.85183 101.57 4.79207 101.232 4.73398C100.556 4.61613 99.9177 4.50159 99.3592 4.40532C99.0758 4.35718 98.8122 4.31403 98.5769 4.28249C98.3349 4.24431 98.1194 4.20614 97.9371 4.17958C97.5675 4.11982 97.3106 4.0833 97.2128 4.06173L97.251 4.05011C97.8576 4.13144 97.6056 4.09326 98.683 4.24431C98.8172 4.26589 98.973 4.28747 99.1504 4.31403C99.3327 4.34557 99.5365 4.37876 99.7719 4.41694C100.239 4.49163 100.824 4.58791 101.559 4.7124C101.741 4.73896 101.935 4.77049 102.139 4.80369C102.343 4.84187 102.551 4.88503 102.777 4.92154C103.223 5.00786 103.71 5.09417 104.242 5.19542C104.509 5.24522 104.789 5.29834 105.077 5.35145C105.148 5.36307 105.223 5.37967 105.298 5.39461C105.367 5.40623 105.444 5.42283 105.518 5.43777C105.669 5.47096 105.823 5.5025 105.979 5.5357C106.607 5.67015 107.283 5.80958 108.012 5.96063C107.545 5.85772 106.907 5.71829 106.168 5.55728C105.984 5.5191 105.792 5.47594 105.598 5.43777C105.502 5.41619 105.4 5.39461 105.303 5.37303C105.202 5.35145 105.099 5.33651 104.998 5.31493C104.585 5.23858 104.161 5.15891 103.726 5.07259C103.292 4.99126 102.851 4.91158 102.417 4.83025C102.197 4.78709 101.978 4.75556 101.757 4.71738C101.542 4.6792 101.328 4.64268 101.114 4.60949C100.69 4.53977 100.282 4.47006 99.8912 4.40034C99.6923 4.36714 99.5034 4.33561 99.3161 4.30407C99.2249 4.29245 99.1338 4.27585 99.0476 4.26091C98.9564 4.24431 98.8719 4.23269 98.7857 4.22273C98.1476 4.14804 97.4929 4.03517 97.1383 3.93723C97.788 4.04015 98.373 4.12646 98.7957 4.22273C98.8504 4.21111 98.9084 4.20614 98.9564 4.20116C98.9564 4.20116 98.9631 4.20116 98.9946 4.20614C99.0211 4.20614 99.0807 4.21775 99.1719 4.23269C99.3592 4.26589 99.7023 4.31901 100.34 4.4269C100.657 4.48002 101.05 4.54475 101.527 4.62608C101.767 4.66426 102.031 4.70742 102.316 4.75556C102.599 4.80867 102.911 4.86843 103.244 4.93316C103.576 4.99126 103.94 5.06097 104.326 5.13235C104.52 5.16887 104.724 5.20704 104.933 5.24522C105.036 5.2668 105.142 5.28838 105.255 5.3083C105.362 5.32489 105.47 5.35145 105.583 5.37303C106.027 5.46432 106.499 5.56724 107.01 5.67513C107.262 5.72824 107.524 5.78302 107.792 5.83614C107.926 5.86767 108.066 5.89589 108.206 5.92245C108.346 5.95399 108.485 5.98719 108.624 6.01872C108.511 5.99217 108.399 5.96561 108.286 5.93905C108.173 5.91083 108.061 5.88925 107.943 5.8627C107.717 5.81456 107.487 5.76642 107.257 5.71331C106.799 5.61537 106.339 5.5191 105.878 5.41619C105.647 5.37303 105.415 5.31991 105.185 5.27178C104.955 5.22862 104.729 5.18546 104.499 5.13733C104.043 5.05101 103.587 4.95972 103.136 4.86345C103.801 4.97632 104.23 5.04603 105.432 5.27178C106.027 5.39461 106.816 5.56226 107.921 5.79298C108.061 5.82618 108.206 5.85274 108.351 5.88427C108.501 5.92245 108.651 5.95399 108.811 5.99217C109.128 6.06686 109.466 6.14819 109.826 6.23451C110.19 6.31418 110.576 6.40714 110.989 6.50341C111.193 6.55155 111.404 6.6113 111.622 6.66442C111.838 6.71753 112.063 6.77729 112.294 6.84202C112.058 6.77729 111.826 6.71753 111.601 6.65446C111.37 6.59968 111.15 6.53495 110.931 6.48681C110.485 6.37892 110.061 6.27767 109.648 6.17973C109.236 6.08346 108.838 5.99217 108.458 5.90087C108.264 5.85274 108.077 5.81456 107.89 5.7714C107.701 5.73322 107.524 5.69671 107.341 5.65853C106.629 5.50748 105.969 5.36307 105.357 5.2336C104.746 5.12073 104.182 5.01284 103.662 4.91656C103.146 4.81365 102.681 4.729 102.251 4.64766C101.822 4.57795 101.436 4.51321 101.086 4.45346C100.39 4.33561 99.8415 4.24431 99.4188 4.1746C99.3111 4.15302 99.2084 4.13642 99.1172 4.11982C99.026 4.10986 98.9415 4.09326 98.8603 4.0833C98.7045 4.06173 98.5703 4.04015 98.4576 4.02355C98.2388 3.98537 98.0979 3.96379 98.0134 3.95383C97.846 3.9223 97.8791 3.91566 97.846 3.90072C101.436 4.4269 104.95 5.05599 108.43 5.82618C108.269 5.77638 107.713 5.65853 106.967 5.49254C106.595 5.41121 106.173 5.32489 105.732 5.22862C105.619 5.20206 105.507 5.18048 105.394 5.15393C105.281 5.13235 105.168 5.11077 105.051 5.08919C104.82 5.04603 104.59 5.00288 104.355 4.95972C103.887 4.86843 103.426 4.78211 102.986 4.6958C102.772 4.65264 102.556 4.61613 102.357 4.57795C102.154 4.53977 101.961 4.50823 101.784 4.47504C101.065 4.35718 100.556 4.27087 100.46 4.24431L101.36 4.38374C101.065 4.31403 100.582 4.23269 100.496 4.20614C100.309 4.13642 99.9177 4.10986 99.6973 4.05011C99.3642 3.96379 99.0426 3.9223 98.8006 3.9223L99.0642 3.95881H98.9896L98.8172 3.9223C98.8172 3.9223 97.9968 3.79282 97.1697 3.66833C96.7571 3.6036 96.3394 3.53388 96.0228 3.48575C95.8621 3.45919 95.7278 3.44259 95.6317 3.43263C95.5289 3.41603 95.4693 3.41105 95.4593 3.40441L95.519 3.39943C95.819 3.43263 96.1239 3.48077 96.4355 3.52392C96.7421 3.56708 97.0587 3.61024 97.3736 3.65837C97.6968 3.70153 98.0183 3.74967 98.3448 3.7978C98.5056 3.81938 98.673 3.84594 98.8388 3.86752C98.92 3.87914 98.9995 3.8891 99.0857 3.9057C99.1669 3.91566 99.2514 3.93226 99.3327 3.94221C99.9973 4.05011 100.674 4.16298 101.355 4.27585C101.698 4.33561 102.041 4.38872 102.386 4.44848C102.729 4.51321 103.072 4.57795 103.415 4.64268C104.108 4.77713 104.804 4.89996 105.497 5.03939C106.183 5.18048 106.871 5.32489 107.552 5.47096C107.717 5.50748 107.89 5.54566 108.061 5.57886C108.142 5.59877 108.226 5.61537 108.312 5.63197C108.399 5.65355 108.48 5.67015 108.564 5.69173C108.898 5.7714 109.231 5.84776 109.562 5.92743C109.89 6.00212 110.217 6.08346 110.545 6.15815C110.867 6.23949 111.188 6.30422 111.505 6.39054C112.133 6.55652 112.749 6.71753 113.344 6.87356C113.495 6.91174 113.639 6.9549 113.79 6.99307C113.86 7.00801 113.934 7.02959 114.011 7.05117C114.08 7.06777 114.15 7.08935 114.219 7.11092C114.51 7.19724 114.788 7.27691 115.061 7.35825C115.608 7.51428 116.134 7.66532 116.628 7.80973C117.122 7.96576 117.582 8.11681 118.018 8.25624C118.446 8.39069 118.849 8.52016 119.208 8.63801C119.568 8.7625 119.889 8.87538 120.175 8.97663C120.738 9.17581 121.146 9.31027 121.35 9.37998C118.055 8.15997 114.67 7.15408 111.243 6.28762C107.814 5.43279 104.343 4.71738 100.856 4.09326C100.803 4.07666 100.712 4.04513 100.62 4.01857C100.158 3.93723 99.6973 3.85756 99.2365 3.78121C98.7691 3.70651 98.3084 3.64178 97.846 3.57704C97.3852 3.50733 96.9294 3.44259 96.4836 3.37288C96.2582 3.3347 96.0394 3.30316 95.819 3.26498C95.5985 3.23345 95.3781 3.20025 95.1643 3.17369C95.4809 3.21187 95.7709 3.23843 96.0278 3.2766C96.2847 3.31312 96.5167 3.34632 96.7256 3.37288C97.1432 3.43263 97.4714 3.47579 97.7399 3.51231C98.2752 3.58866 98.5819 3.63182 98.9084 3.67331C98.9896 3.68991 99.0758 3.70153 99.1669 3.71149C99.2514 3.72809 99.3492 3.74469 99.4503 3.75963C99.6542 3.7978 99.9012 3.84096 100.218 3.89408C100.529 3.94885 100.915 4.01359 101.403 4.09824C101.65 4.13642 101.918 4.18456 102.213 4.23269C102.513 4.28747 102.841 4.35718 103.201 4.42192L103.223 4.4103C102.53 4.27585 102.294 4.22771 102.16 4.20614C102.026 4.18456 101.999 4.1746 101.736 4.11982C102.069 4.15302 106.199 4.85681 110.238 5.81954C111.253 6.0403 112.255 6.31418 113.195 6.55652C113.431 6.62126 113.661 6.68102 113.886 6.73911C113.946 6.75571 114.004 6.76733 114.059 6.78227C114.112 6.79887 114.171 6.81547 114.224 6.8304C114.337 6.8636 114.445 6.89016 114.553 6.92336C114.982 7.04619 115.39 7.16404 115.764 7.27691C116.14 7.38481 116.493 7.48274 116.8 7.57403C117.112 7.67528 117.378 7.7616 117.611 7.83131C118.066 7.98236 118.345 8.06868 118.393 8.08361V8.06868C118.131 7.98734 117.616 7.82135 116.918 7.59561C116.745 7.53585 116.558 7.48274 116.359 7.42298C116.162 7.36987 115.951 7.30513 115.738 7.24537C115.303 7.1159 114.836 6.97647 114.337 6.83704C114.09 6.76069 113.833 6.69098 113.57 6.62126C113.308 6.55155 113.039 6.48183 112.766 6.41212C112.492 6.3424 112.219 6.26605 111.939 6.19135C111.8 6.15317 111.655 6.11666 111.516 6.07848C111.447 6.06188 111.37 6.0403 111.301 6.0237C111.231 6.00876 111.157 5.98719 111.087 5.97059C110.512 5.83614 109.928 5.69671 109.343 5.55728C109.053 5.4859 108.763 5.41619 108.473 5.34647C108.185 5.28174 107.89 5.217 107.605 5.15891C107.031 5.03442 106.468 4.91158 105.921 4.79207C105.787 4.76053 105.652 4.73398 105.518 4.70742C105.384 4.67422 105.25 4.65264 105.12 4.62608C104.858 4.57297 104.6 4.52317 104.355 4.47504C103.854 4.37876 103.388 4.28747 102.959 4.20116C102.744 4.158 102.54 4.11484 102.347 4.07666C102.149 4.04015 101.966 4.00695 101.796 3.97541C100.427 3.72809 99.8365 3.59862 100.642 3.69489C100.577 3.67331 100.518 3.65174 100.448 3.62518C100.839 3.68493 101.151 3.73307 101.628 3.80776C100.776 3.66335 99.1288 3.3679 97.6703 3.16871C96.946 3.06082 96.2698 2.95957 95.7709 2.88819C95.2654 2.82512 94.9439 2.78196 94.9173 2.78196L94.9389 2.76536C95.272 2.80852 95.6151 2.84503 95.9416 2.88321C96.2747 2.92637 96.5913 2.9745 96.8747 3.01268C97.4382 3.08738 97.8625 3.14713 97.9487 3.15211C97.7233 3.10895 97.5244 3.07742 97.3322 3.04422L97.2725 3.02264C97.4068 3.03924 97.541 3.05584 97.7399 3.07742C97.3952 3.02264 97.1913 2.9911 96.9941 2.95957C97.7283 3.03426 98.5006 3.16373 99.2465 3.26498C99.268 3.23843 99.563 3.29154 99.7835 3.32972C99.568 3.28656 99.4023 3.25502 99.268 3.22847C99.1387 3.20025 99.0426 3.17867 98.973 3.15709C98.8288 3.12057 98.7857 3.08738 98.7642 3.0658C99.3592 3.11393 99.52 3.19527 99.8315 3.26C99.8962 3.26498 100.249 3.31976 100.829 3.41105C101.114 3.45919 101.457 3.51231 101.849 3.57704C102.041 3.6036 102.245 3.64178 102.46 3.67331C102.681 3.71647 102.906 3.75465 103.136 3.7978C103.609 3.88412 104.113 3.98039 104.643 4.07666C104.911 4.12646 105.185 4.17958 105.465 4.22771C105.744 4.28747 106.022 4.34556 106.312 4.40532C106.885 4.52317 107.482 4.64766 108.082 4.77713C108.233 4.80867 108.382 4.83523 108.538 4.86843C108.689 4.90494 108.838 4.94312 108.989 4.97632C109.295 5.04603 109.595 5.12073 109.9 5.19044C110.202 5.26016 110.507 5.32987 110.807 5.40125C111.114 5.47594 111.413 5.54068 111.709 5.62035C112.304 5.77638 112.889 5.92743 113.457 6.07848C113.742 6.15317 114.021 6.21791 114.294 6.2926C114.563 6.37394 114.831 6.44863 115.088 6.52499C115.603 6.67604 116.097 6.81547 116.553 6.94992C116.666 6.98145 116.779 7.01465 116.886 7.04619C116.992 7.07939 117.1 7.1159 117.203 7.1491C117.407 7.21384 117.604 7.27691 117.793 7.33667C118.162 7.45452 118.489 7.55743 118.757 7.64873C119.031 7.73504 119.251 7.80475 119.407 7.85289C119.563 7.90767 119.659 7.9392 119.681 7.94916L119.691 7.9392C116.049 6.67604 112.304 5.67513 108.554 4.80867L108.564 4.79871L111.226 5.41121C111.452 5.45934 111.67 5.5191 111.891 5.57886L112.55 5.74982L113.876 6.08844L113.898 6.07848C113.656 6.01374 113.162 5.88427 112.486 5.70169C112.143 5.61039 111.757 5.50748 111.334 5.40125C110.905 5.29834 110.437 5.18546 109.938 5.06761C109.691 5.00786 109.435 4.9481 109.171 4.88503C109.042 4.85183 108.909 4.82029 108.775 4.79207C108.705 4.77713 108.641 4.75556 108.571 4.73896C108.501 4.729 108.437 4.7124 108.367 4.6958C107.814 4.57795 107.24 4.4601 106.65 4.33063C106.36 4.27087 106.06 4.20614 105.76 4.1414C105.689 4.12646 105.614 4.10986 105.535 4.09326C105.458 4.07666 105.384 4.06671 105.309 4.05011C105.158 4.02355 105.008 3.99201 104.853 3.96379C104.247 3.84594 103.635 3.73307 103.024 3.61522C102.412 3.49073 101.806 3.39943 101.206 3.29818C100.609 3.19527 100.024 3.09402 99.4619 3.00106C99.3923 2.9911 99.3211 2.9745 99.2514 2.96455C99.1818 2.95293 99.1122 2.94297 99.0426 2.93135C98.9034 2.91641 98.7642 2.89483 98.6299 2.87325C98.3565 2.8301 98.0929 2.79192 97.836 2.75374C97.3206 2.67407 96.8333 2.60435 96.3825 2.53464C95.9366 2.46326 95.5239 2.41512 95.1593 2.36699C94.7947 2.31387 94.4715 2.27072 94.2096 2.23752C93.6842 2.16282 93.3726 2.11469 93.3561 2.10307C92.766 2.03833 91.4732 1.91052 90.1705 1.76445C89.8424 1.72627 89.5159 1.68976 89.1993 1.65158C88.8827 1.62004 88.5711 1.59182 88.2861 1.56527C87.7126 1.51215 87.2253 1.46401 86.9088 1.43082C86.9452 1.46899 86.3817 1.43746 86.4364 1.38766C85.4651 1.3611 85.6524 1.35612 84.9331 1.26483L85.132 1.26981C85.1436 1.28143 85.1585 1.28641 85.1701 1.29637C85.3955 1.30799 85.5779 1.31296 85.727 1.31794C85.8778 1.32956 85.9905 1.33952 86.0817 1.3445C86.259 1.35612 86.3452 1.36608 86.4148 1.38766L86.9187 1.43082C87.1656 1.44741 87.6695 1.48559 88.3722 1.53871C89.075 1.58684 89.9716 1.68478 90.9959 1.78603C91.5114 1.84081 92.0533 1.89392 92.6218 1.95368C93.1903 2.02339 93.7804 2.09809 94.387 2.17278C94.6919 2.21096 94.9986 2.24914 95.3085 2.28565C95.4643 2.30723 95.6151 2.32383 95.7759 2.34541C95.8505 2.35703 95.9317 2.36201 96.0062 2.37197C96.0875 2.38359 96.167 2.39355 96.2433 2.41015C96.8698 2.49646 97.5029 2.58775 98.136 2.68403C98.4526 2.72718 98.7691 2.77532 99.0857 2.81848C99.2415 2.84005 99.3973 2.86661 99.5531 2.89483C99.7072 2.92139 99.8697 2.94297 100.019 2.96952C100.642 3.07742 101.254 3.17369 101.844 3.2766C102.439 3.3679 103.007 3.48077 103.554 3.58202C104.101 3.68493 104.621 3.78121 105.11 3.8725C105.593 3.95881 106.043 4.06173 106.451 4.1414C106.859 4.22771 107.224 4.30407 107.535 4.37378C107.852 4.43852 108.114 4.49163 108.317 4.53479C108.425 4.55139 108.511 4.57297 108.581 4.58293C108.656 4.59953 108.71 4.60949 108.747 4.62111C108.586 4.57795 108.425 4.54475 108.269 4.51321C108.109 4.48002 107.953 4.44848 107.799 4.4103C107.492 4.34556 107.192 4.28249 106.902 4.21775C106.607 4.158 106.322 4.09824 106.043 4.04015C105.904 4.00695 105.77 3.98039 105.636 3.94885C105.502 3.9223 105.367 3.90072 105.24 3.8725C104.182 3.67331 103.249 3.49737 102.417 3.34134C101.575 3.20025 100.839 3.07742 100.186 2.96952C99.8581 2.91641 99.5531 2.86163 99.2631 2.8135C98.973 2.77034 98.6995 2.73216 98.4476 2.69564C97.4283 2.5446 96.6609 2.43172 96.0112 2.33545C95.3565 2.24416 94.8162 2.1678 94.2411 2.08149L94.2743 2.06655C94.9124 2.13627 95.9317 2.24416 97.2825 2.44832C97.6206 2.49646 97.9802 2.54957 98.3614 2.60435C98.5487 2.63091 98.7426 2.65747 98.9465 2.68403C99.0426 2.70062 99.1454 2.71722 99.2465 2.73216C99.3492 2.74378 99.4553 2.76536 99.5581 2.78196C100.395 2.92139 101.312 3.07244 102.304 3.23345L102.347 3.22847C101.935 3.15211 101.345 3.04422 100.62 2.92139C100.261 2.85665 99.8697 2.79192 99.4503 2.7222C99.026 2.65249 98.5819 2.58775 98.1145 2.51804C97.6487 2.44832 97.1598 2.37861 96.6609 2.30225C96.409 2.26574 96.1571 2.22756 95.8985 2.19436C95.6416 2.15784 95.3847 2.12465 95.1212 2.09311C94.6008 2.02837 94.0704 1.95866 93.5384 1.89392C93.2699 1.86073 93.003 1.82421 92.7395 1.79101C92.476 1.75947 92.2075 1.73291 91.9456 1.70636C91.4136 1.6466 90.8932 1.59182 90.3794 1.53871C90.1208 1.51215 89.8689 1.47895 89.6219 1.45239C89.4943 1.44244 89.375 1.43082 89.2523 1.41588C89.1297 1.40426 89.0054 1.3943 88.8827 1.38268C87.9165 1.29637 87.0215 1.21669 86.2474 1.14698C86.0552 1.13038 85.8729 1.11378 85.6955 1.09718C85.5132 1.08224 85.3475 1.07062 85.1867 1.06066C84.8635 1.03245 84.5851 1.01253 84.3431 0.995928C83.8658 0.952771 83.5608 0.926213 83.4746 0.914594C83.8724 0.936172 84.3066 0.96273 84.784 0.990948C85.0193 1.00091 85.2613 1.01751 85.5182 1.03245C85.7701 1.04904 86.0287 1.0756 86.2972 1.09718C86.8275 1.14034 87.3911 1.18847 87.9645 1.23827C88.2546 1.26483 88.5496 1.29139 88.8446 1.31296C88.9954 1.32956 89.1446 1.33952 89.2954 1.35612C89.4462 1.37272 89.5904 1.38766 89.7462 1.40426C90.3462 1.46899 90.9578 1.53373 91.5694 1.59846C91.881 1.63 92.1876 1.6632 92.4926 1.69474C92.7992 1.72627 93.0992 1.76943 93.4041 1.80263C94.0058 1.87732 94.6057 1.95368 95.1809 2.02339C95.4759 2.05493 95.7593 2.09311 96.0394 2.12465C96.3178 2.16282 96.5913 2.201 96.8648 2.23752C96.709 2.20598 96.4305 2.15784 96.0543 2.09311C95.6797 2.03833 95.2074 1.98024 94.6704 1.90388C94.1334 1.83417 93.5284 1.75947 92.8837 1.67316C92.7992 1.6632 92.718 1.65158 92.6367 1.64162C92.5572 1.63498 92.471 1.62502 92.3914 1.6134C92.2241 1.59846 92.0583 1.58187 91.8859 1.56029C91.5429 1.52875 91.1998 1.49057 90.8517 1.45239C90.502 1.41588 90.149 1.3777 89.7993 1.33952C89.6219 1.31794 89.4462 1.30301 89.2739 1.28143C89.0965 1.26483 88.9192 1.25321 88.7485 1.23827C88.0557 1.17353 87.3745 1.11378 86.7414 1.06066C86.4248 1.03245 86.1248 1.00589 85.8298 0.979329C85.5397 0.952771 85.2663 0.936172 85.0094 0.914594C84.4939 0.878077 84.0481 0.844879 83.705 0.818321C83.2757 0.796742 82.8581 0.775164 82.3907 0.710429C82.9807 0.743626 83.4315 0.758565 83.695 0.818321C84.0646 0.83492 84.7574 0.878076 85.5994 0.931193C86.4298 0.995928 87.4076 1.08224 88.3408 1.16192C89.2689 1.23163 90.154 1.33952 90.802 1.40426C91.4517 1.47397 91.871 1.51713 91.876 1.51713C91.8544 1.50717 91.8329 1.49057 91.8114 1.47895C90.9528 1.38766 90.149 1.29637 89.3965 1.21669C89.2043 1.19511 89.0219 1.17851 88.8396 1.16192C88.6573 1.14698 88.475 1.13038 88.3026 1.11378C87.9479 1.08224 87.6115 1.05402 87.2833 1.02249C86.9568 0.995928 86.6403 0.96937 86.3386 0.941152C86.0336 0.914594 85.7436 0.883056 85.4602 0.866457C84.9016 0.82828 84.3812 0.791762 83.9039 0.758565C83.4265 0.727027 82.9923 0.69383 82.5945 0.667272C82.3907 0.657312 82.2034 0.640714 82.0211 0.629094C81.8387 0.619135 81.6664 0.614156 81.5006 0.602536C80.841 0.570998 80.309 0.54444 79.8863 0.522862C79.0328 0.479705 78.5819 0.453147 78.2985 0.436548C78.0085 0.419949 77.8742 0.40999 77.6588 0.381772Z" fill="white"/>
</svg>
